<svg width="25" height="25" viewBox="0 0 25 25" fill="none" xmlns="http://www.w3.org/2000/svg">
<path d="M14.7015 12.4973L24.5381 2.67633C24.8322 2.38232 24.9973 1.98355 24.9973 1.56776C24.9973 1.15196 24.8322 0.753197 24.5381 0.459185C24.2441 0.165174 23.8454 0 23.4296 0C23.0138 0 22.615 0.165174 22.321 0.459185L12.5 10.2958L2.67899 0.459185C2.38498 0.165174 1.98622 3.69161e-07 1.57042 3.72259e-07C1.15463 3.75357e-07 0.755862 0.165174 0.46185 0.459185C0.167839 0.753197 0.00266501 1.15196 0.002665 1.56776C0.002665 1.98355 0.167839 2.38232 0.46185 2.67633L10.2985 12.4973L0.46185 22.3183C0.315506 22.4635 0.199349 22.6362 0.12008 22.8264C0.0408118 23.0167 0 23.2208 0 23.4269C0 23.633 0.0408118 23.8371 0.12008 24.0274C0.199349 24.2176 0.315506 24.3903 0.46185 24.5355C0.607 24.6818 0.779688 24.798 0.969956 24.8773C1.16022 24.9565 1.3643 24.9973 1.57042 24.9973C1.77654 24.9973 1.98062 24.9565 2.17089 24.8773C2.36115 24.798 2.53384 24.6818 2.67899 24.5355L12.5 14.6989L22.321 24.5355C22.4662 24.6818 22.6388 24.798 22.8291 24.8773C23.0194 24.9565 23.2235 24.9973 23.4296 24.9973C23.6357 24.9973 23.8398 24.9565 24.03 24.8773C24.2203 24.798 24.393 24.6818 24.5381 24.5355C24.6845 24.3903 24.8007 24.2176 24.8799 24.0274C24.9592 23.8371 25 23.633 25 23.4269C25 23.2208 24.9592 23.0167 24.8799 22.8264C24.8007 22.6362 24.6845 22.4635 24.5381 22.3183L14.7015 12.4973Z" fill="white"/>
</svg>
