<svg width="74" height="47" viewBox="0 0 74 47" fill="none" xmlns="http://www.w3.org/2000/svg">
<g filter="url(#filter0_d_8_127)">
<path d="M17.6201 31.14C17.1135 31.14 16.6935 30.9866 16.3601 30.68C16.0401 30.36 15.8801 29.9666 15.8801 29.5C15.8801 29.0333 16.0401 28.6466 16.3601 28.34C16.6935 28.02 17.1135 27.86 17.6201 27.86C18.1135 27.86 18.5201 28.02 18.8401 28.34C19.1601 28.6466 19.3201 29.0333 19.3201 29.5C19.3201 29.9666 19.1601 30.36 18.8401 30.68C18.5201 30.9866 18.1135 31.14 17.6201 31.14ZM20.8554 25.42C20.8554 24.3 21.0754 23.3066 21.5154 22.44C21.9688 21.5733 22.5821 20.9066 23.3554 20.44C24.1288 19.9733 24.9888 19.74 25.9354 19.74C26.6554 19.74 27.3421 19.9 27.9954 20.22C28.6488 20.5266 29.1688 20.94 29.5554 21.46V16.2H32.3954V31H29.5554V29.36C29.2088 29.9066 28.7221 30.3466 28.0954 30.68C27.4688 31.0133 26.7421 31.18 25.9154 31.18C24.9821 31.18 24.1288 30.94 23.3554 30.46C22.5821 29.98 21.9688 29.3066 21.5154 28.44C21.0754 27.56 20.8554 26.5533 20.8554 25.42ZM29.5754 25.46C29.5754 24.78 29.4421 24.2 29.1754 23.72C28.9088 23.2266 28.5488 22.8533 28.0954 22.6C27.6421 22.3333 27.1554 22.2 26.6354 22.2C26.1154 22.2 25.6354 22.3266 25.1954 22.58C24.7554 22.8333 24.3954 23.2066 24.1154 23.7C23.8488 24.18 23.7154 24.7533 23.7154 25.42C23.7154 26.0866 23.8488 26.6733 24.1154 27.18C24.3954 27.6733 24.7554 28.0533 25.1954 28.32C25.6488 28.5866 26.1288 28.72 26.6354 28.72C27.1554 28.72 27.6421 28.5933 28.0954 28.34C28.5488 28.0733 28.9088 27.7 29.1754 27.22C29.4421 26.7266 29.5754 26.14 29.5754 25.46ZM40.0501 31.18C38.9835 31.18 38.0235 30.9466 37.1701 30.48C36.3168 30 35.6435 29.3266 35.1501 28.46C34.6701 27.5933 34.4301 26.5933 34.4301 25.46C34.4301 24.3266 34.6768 23.3266 35.1701 22.46C35.6768 21.5933 36.3635 20.9266 37.2301 20.46C38.0968 19.98 39.0635 19.74 40.1301 19.74C41.1968 19.74 42.1635 19.98 43.0301 20.46C43.8968 20.9266 44.5768 21.5933 45.0701 22.46C45.5768 23.3266 45.8301 24.3266 45.8301 25.46C45.8301 26.5933 45.5701 27.5933 45.0501 28.46C44.5435 29.3266 43.8501 30 42.9701 30.48C42.1035 30.9466 41.1301 31.18 40.0501 31.18ZM40.0501 28.74C40.5568 28.74 41.0301 28.62 41.4701 28.38C41.9235 28.1266 42.2835 27.7533 42.5501 27.26C42.8168 26.7666 42.9501 26.1666 42.9501 25.46C42.9501 24.4066 42.6701 23.6 42.1101 23.04C41.5635 22.4666 40.8901 22.18 40.0901 22.18C39.2901 22.18 38.6168 22.4666 38.0701 23.04C37.5368 23.6 37.2701 24.4066 37.2701 25.46C37.2701 26.5133 37.5301 27.3266 38.0501 27.9C38.5835 28.46 39.2501 28.74 40.0501 28.74ZM47.164 25.46C47.164 24.3133 47.3974 23.3133 47.864 22.46C48.3307 21.5933 48.9774 20.9266 49.804 20.46C50.6307 19.98 51.5774 19.74 52.644 19.74C54.0174 19.74 55.1507 20.0866 56.044 20.78C56.9507 21.46 57.5574 22.42 57.864 23.66H54.844C54.684 23.18 54.4107 22.8066 54.024 22.54C53.6507 22.26 53.184 22.12 52.624 22.12C51.824 22.12 51.1907 22.4133 50.724 23C50.2574 23.5733 50.024 24.3933 50.024 25.46C50.024 26.5133 50.2574 27.3333 50.724 27.92C51.1907 28.4933 51.824 28.78 52.624 28.78C53.7574 28.78 54.4974 28.2733 54.844 27.26H57.864C57.5574 28.46 56.9507 29.4133 56.044 30.12C55.1374 30.8266 54.004 31.18 52.644 31.18C51.5774 31.18 50.6307 30.9466 49.804 30.48C48.9774 30 48.3307 29.3333 47.864 28.48C47.3974 27.6133 47.164 26.6066 47.164 25.46Z" fill="white"/>
</g>
<defs>
<filter id="filter0_d_8_127" x="0.480127" y="0.799982" width="72.7839" height="45.78" filterUnits="userSpaceOnUse" color-interpolation-filters="sRGB">
<feFlood flood-opacity="0" result="BackgroundImageFix"/>
<feColorMatrix in="SourceAlpha" type="matrix" values="0 0 0 0 0 0 0 0 0 0 0 0 0 0 0 0 0 0 127 0" result="hardAlpha"/>
<feOffset/>
<feGaussianBlur stdDeviation="7.7"/>
<feComposite in2="hardAlpha" operator="out"/>
<feColorMatrix type="matrix" values="0 0 0 0 0.85098 0 0 0 0 0.85098 0 0 0 0 0.85098 0 0 0 1 0"/>
<feBlend mode="normal" in2="BackgroundImageFix" result="effect1_dropShadow_8_127"/>
<feBlend mode="normal" in="SourceGraphic" in2="effect1_dropShadow_8_127" result="shape"/>
</filter>
</defs>
</svg>
