<svg width="81" height="78" viewBox="0 0 81 78" fill="none" xmlns="http://www.w3.org/2000/svg">
<g filter="url(#filter0_d_8_117)">
<path d="M63.9844 24.3465L56.6921 17.037C56.0504 16.3948 55.1873 16.024 54.2807 16.0011C53.3742 15.9782 52.4935 16.3051 51.8204 16.9141L27.3087 39.2113L24.4133 41.8987C24.3365 41.9622 24.2747 42.0419 24.2323 42.1322C24.1899 42.2224 24.168 42.321 24.1682 42.4208C24.1692 42.6253 24.2456 42.8221 24.3826 42.9736L24.8576 43.4343C25.884 46.6437 23.6626 50.0528 22.2072 51.8034C21.6256 52.5066 21.0014 53.1733 20.3382 53.7997C20.2623 53.865 20.2001 53.9448 20.1554 54.0344C20.1107 54.1241 20.0843 54.2218 20.0778 54.3218C20.0742 54.5272 20.1512 54.7257 20.2922 54.8747L21.0582 55.6425L16.2172 60.4643C16.1157 60.5704 16.0461 60.7031 16.0163 60.847C15.9865 60.9909 15.9977 61.1404 16.0487 61.2782C16.1047 61.412 16.1982 61.5266 16.3178 61.6083C16.4374 61.6901 16.578 61.7354 16.7227 61.7389L23.2949 61.9999C23.3931 62.0009 23.4904 61.9809 23.5802 61.9412C23.67 61.9014 23.7504 61.8429 23.8158 61.7696L25.455 60.1418L26.2057 60.8943C26.2742 60.9627 26.3554 61.0169 26.4448 61.0538C26.5342 61.0906 26.6299 61.1095 26.7266 61.1093C26.828 61.1076 26.928 61.0849 27.0203 61.0426C27.1126 61.0004 27.1951 60.9394 27.2628 60.8636C27.8832 60.1592 28.5651 59.5116 29.3003 58.9287C31.4298 57.1627 34.6163 55.3046 37.6496 56.2874L38.1245 56.7635C38.2637 56.9002 38.4505 56.9773 38.6454 56.9785C38.8443 56.9676 39.0311 56.8794 39.1663 56.7328L41.8472 53.769L64.0763 29.1991C64.6859 28.5333 65.0165 27.6579 64.9994 26.7544C64.9823 25.8508 64.6188 24.9886 63.9844 24.3465ZM23.0039 60.4643L18.4998 60.3568L22.1306 56.7174L24.4439 59.0208L23.0039 60.4643ZM26.7266 59.2358L25.9912 58.5141L22.6362 55.1357L21.8855 54.3218L22.8353 53.3237L25.2865 55.8575L27.7224 58.3144C27.324 58.6523 26.987 58.9287 26.7266 59.2358ZM28.8867 57.3931L26.3283 54.7825L23.7852 52.2334C25.4554 50.2588 26.4489 47.7988 26.6193 45.2156L35.9185 54.5061C33.3238 54.677 30.8554 55.6904 28.8867 57.3931ZM38.6147 55.1818L26.0372 42.5129L27.8756 40.8237L40.3459 53.3237L38.6147 55.1818ZM63.0039 28.2163L41.311 52.1873L28.9326 39.7795L52.7703 18.0198C53.1513 17.6591 53.6556 17.4581 54.1797 17.4581C54.7038 17.4581 55.2081 17.6591 55.5891 18.0198L62.8813 25.3447C63.2716 25.7126 63.5028 26.2189 63.5257 26.7555C63.5486 27.292 63.3613 27.8163 63.0039 28.2163Z" fill="white"/>
</g>
<defs>
<filter id="filter0_d_8_117" x="0.6" y="0.59997" width="79.8" height="76.8" filterUnits="userSpaceOnUse" color-interpolation-filters="sRGB">
<feFlood flood-opacity="0" result="BackgroundImageFix"/>
<feColorMatrix in="SourceAlpha" type="matrix" values="0 0 0 0 0 0 0 0 0 0 0 0 0 0 0 0 0 0 127 0" result="hardAlpha"/>
<feOffset/>
<feGaussianBlur stdDeviation="7.7"/>
<feComposite in2="hardAlpha" operator="out"/>
<feColorMatrix type="matrix" values="0 0 0 0 0.85098 0 0 0 0 0.85098 0 0 0 0 0.85098 0 0 0 1 0"/>
<feBlend mode="normal" in2="BackgroundImageFix" result="effect1_dropShadow_8_117"/>
<feBlend mode="normal" in="SourceGraphic" in2="effect1_dropShadow_8_117" result="shape"/>
</filter>
</defs>
</svg>
