<svg width="27" height="30" viewBox="0 0 27 30" fill="none" xmlns="http://www.w3.org/2000/svg">
<path d="M7.49991 8.9999C7.10209 8.9999 6.72057 9.15793 6.43926 9.43923C6.15796 9.72053 5.99993 10.1021 5.99993 10.4999C5.99993 10.8977 6.15796 11.2792 6.43926 11.5605C6.72057 11.8418 7.10209 11.9999 7.49991 11.9999H8.9999C9.39771 11.9999 9.77924 11.8418 10.0605 11.5605C10.3418 11.2792 10.4999 10.8977 10.4999 10.4999C10.4999 10.1021 10.3418 9.72053 10.0605 9.43923C9.77924 9.15793 9.39771 8.9999 8.9999 8.9999H7.49991ZM14.9998 26.9997H4.49995C4.10213 26.9997 3.7206 26.8417 3.4393 26.5604C3.158 26.2791 2.99996 25.8975 2.99996 25.4997V4.49995C2.99996 4.10213 3.158 3.7206 3.4393 3.4393C3.7206 3.158 4.10213 2.99997 4.49995 2.99997H11.9999V7.49991C11.9999 8.69337 12.474 9.83795 13.3179 10.6819C14.1618 11.5258 15.3063 11.9999 16.4998 11.9999H20.9998V14.9998C20.9998 15.3976 21.1578 15.7792 21.4391 16.0605C21.7204 16.3418 22.1019 16.4998 22.4997 16.4998C22.8976 16.4998 23.2791 16.3418 23.5604 16.0605C23.8417 15.7792 23.9997 15.3976 23.9997 14.9998V10.4999C23.9997 10.4999 23.9997 10.4999 23.9997 10.4099C23.9841 10.2721 23.9539 10.1363 23.9097 10.0049V9.86989C23.8376 9.71566 23.7414 9.57389 23.6247 9.44989L14.6248 0.449995C14.5008 0.33332 14.3591 0.237119 14.2048 0.164998C14.1552 0.156312 14.1045 0.156312 14.0548 0.164998C13.909 0.0870036 13.7522 0.0313826 13.5898 0H4.49995C3.30649 0 2.16191 0.4741 1.318 1.318C0.4741 2.16191 0 3.30649 0 4.49995V25.4997C0 26.6932 0.4741 27.8377 1.318 28.6816C2.16191 29.5256 3.30649 29.9997 4.49995 29.9997H14.9998C15.3976 29.9997 15.7792 29.8416 16.0605 29.5603C16.3418 29.279 16.4998 28.8975 16.4998 28.4997C16.4998 28.1018 16.3418 27.7203 16.0605 27.439C15.7792 27.1577 15.3976 26.9997 14.9998 26.9997ZM14.9998 5.11494L18.8848 8.9999H16.4998C16.102 8.9999 15.7205 8.84186 15.4392 8.56056C15.1579 8.27926 14.9998 7.89773 14.9998 7.49991V5.11494ZM16.4998 14.9998H7.49991C7.10209 14.9998 6.72057 15.1579 6.43926 15.4392C6.15796 15.7205 5.99993 16.102 5.99993 16.4998C5.99993 16.8976 6.15796 17.2792 6.43926 17.5605C6.72057 17.8418 7.10209 17.9998 7.49991 17.9998H16.4998C16.8976 17.9998 17.2792 17.8418 17.5605 17.5605C17.8418 17.2792 17.9998 16.8976 17.9998 16.4998C17.9998 16.102 17.8418 15.7205 17.5605 15.4392C17.2792 15.1579 16.8976 14.9998 16.4998 14.9998ZM26.5647 24.4347C26.4252 24.2941 26.2593 24.1825 26.0766 24.1064C25.8938 24.0302 25.6977 23.991 25.4997 23.991C25.3017 23.991 25.1056 24.0302 24.9228 24.1064C24.7401 24.1825 24.5742 24.2941 24.4347 24.4347L23.9997 24.8847V20.9998C23.9997 20.6019 23.8417 20.2204 23.5604 19.9391C23.2791 19.6578 22.8976 19.4998 22.4997 19.4998C22.1019 19.4998 21.7204 19.6578 21.4391 19.9391C21.1578 20.2204 20.9998 20.6019 20.9998 20.9998V24.8847L20.5648 24.4347C20.2823 24.1523 19.8992 23.9936 19.4998 23.9936C19.1003 23.9936 18.7172 24.1523 18.4348 24.4347C18.1523 24.7172 17.9937 25.1003 17.9937 25.4997C17.9937 25.8992 18.1523 26.2822 18.4348 26.5647L21.4348 29.5647C21.5774 29.7012 21.7456 29.8083 21.9297 29.8797C22.1093 29.959 22.3034 30 22.4997 30C22.696 30 22.8902 29.959 23.0697 29.8797C23.2539 29.8083 23.4221 29.7012 23.5647 29.5647L26.5647 26.5647C26.7053 26.4252 26.8169 26.2593 26.893 26.0766C26.9692 25.8938 27.0084 25.6977 27.0084 25.4997C27.0084 25.3017 26.9692 25.1056 26.893 24.9228C26.8169 24.7401 26.7053 24.5742 26.5647 24.4347ZM13.4998 23.9997C13.8977 23.9997 14.2792 23.8417 14.5605 23.5604C14.8418 23.2791 14.9998 22.8976 14.9998 22.4997C14.9998 22.1019 14.8418 21.7204 14.5605 21.4391C14.2792 21.1578 13.8977 20.9998 13.4998 20.9998H7.49991C7.10209 20.9998 6.72057 21.1578 6.43926 21.4391C6.15796 21.7204 5.99993 22.1019 5.99993 22.4997C5.99993 22.8976 6.15796 23.2791 6.43926 23.5604C6.72057 23.8417 7.10209 23.9997 7.49991 23.9997H13.4998Z" fill="white"/>
</svg>
