<svg width="34" height="44" viewBox="0 0 34 44" fill="none" xmlns="http://www.w3.org/2000/svg">
<path fill-rule="evenodd" clip-rule="evenodd" d="M6.20635 0C2.77866 0 0 2.77866 0 6.20635L0 16.7302C0 17.4753 0.604067 18.0794 1.34921 18.0794C2.09435 18.0794 2.69841 17.4753 2.69841 16.7302L2.69841 6.20635C2.69841 4.26894 4.26894 2.69841 6.20635 2.69841L22.127 2.69841V9.44444C22.127 11.0838 23.4559 12.4127 25.0952 12.4127H31.3016L31.3016 37.5079C31.3016 39.4453 29.7311 41.0159 27.7937 41.0159H6.20635C4.26894 41.0159 2.69841 39.4453 2.69841 37.5079L2.69841 35.8889C2.69841 35.1437 2.09435 34.5397 1.34921 34.5397C0.604067 34.5397 0 35.1437 0 35.8889L0 37.5079C0 40.9356 2.77866 43.7143 6.20635 43.7143H27.7937C31.2213 43.7143 34 40.9356 34 37.5079V11.5845C34 10.2885 33.5092 9.04055 32.6263 8.09178L30.9675 6.30932L30.9464 6.28665L30.9243 6.26496L26.0281 1.46562C25.0698 0.526191 23.7812 0 22.4392 0L6.20635 0ZM30.4501 9.71429L29.0133 8.17031L24.8254 4.06527V9.44444C24.8254 9.59345 24.9462 9.71429 25.0952 9.71429H30.4501Z" fill="#FB6666"/>
<path d="M0.769165 22.9833L0.769165 29.9922H1.84155L1.84155 27.6966V27.1966H2.34155H3.99298C4.29094 27.1966 4.54976 27.139 4.77759 27.0313C5.02248 26.9082 5.22814 26.7499 5.39899 26.5563L0.769165 22.9833ZM0.769165 22.9833H3.96059C4.25677 22.9833 4.51385 23.0437 4.7408 23.1572L4.74079 23.1572L4.74498 23.1592C4.99862 23.2831 5.20748 23.4418 5.3774 23.6344L5.37735 23.6344L5.38286 23.6405C5.56312 23.8382 5.70344 24.0654 5.80404 24.3257L5.80403 24.3257L5.80547 24.3294C5.90478 24.5805 5.95393 24.8383 5.95393 25.1061C5.95393 25.3653 5.90531 25.6196 5.80546 25.8721L5.80536 25.8721L5.80182 25.8816C5.70784 26.1342 5.57387 26.3581 5.39902 26.5563L0.769165 22.9833ZM2.34155 23.6887H1.84155V24.1887L1.84155 25.9912V26.4912H2.34155H3.50726C3.89883 26.4912 4.25866 26.3515 4.5129 26.0338L4.51297 26.0338L4.51881 26.0262C4.72817 25.7541 4.83837 25.4388 4.83837 25.0953C4.83837 24.9239 4.80476 24.7577 4.74319 24.5994C4.68905 24.4424 4.60899 24.2982 4.50369 24.1695C4.39001 24.0216 4.2455 23.9098 4.08221 23.8305C3.90241 23.7322 3.70656 23.6887 3.50726 23.6887H2.34155Z" fill="white" stroke="white"/>
<path d="M7.61755 30.2547V22.7207C7.61755 22.5624 7.69311 22.4833 7.84422 22.4833H10.6505C11.1543 22.4833 11.6436 22.5876 12.1185 22.7963C12.6006 23.0049 13.0287 23.2892 13.4029 23.649C13.7771 24.0087 14.0757 24.4333 14.2988 24.9226C14.5291 25.4119 14.6442 25.9336 14.6442 26.4877C14.6442 27.013 14.5398 27.5167 14.3312 27.9988C14.1225 28.4809 13.8383 28.9091 13.4785 29.2833C13.1187 29.6503 12.6941 29.9452 12.2049 30.1684C11.7227 30.3842 11.2046 30.4922 10.6505 30.4922H7.84422C7.69311 30.4922 7.61755 30.413 7.61755 30.2547ZM12.5502 26.4877C12.5502 26.1999 12.4963 25.93 12.3883 25.6782C12.2876 25.4191 12.1437 25.196 11.9566 25.009C11.7695 24.8219 11.5464 24.6744 11.2873 24.5665C11.0355 24.4513 10.7585 24.3938 10.4563 24.3938H9.70073V28.5817H10.4563C10.7585 28.5817 11.0355 28.5277 11.2873 28.4198C11.5464 28.3046 11.7695 28.1535 11.9566 27.9664C12.1437 27.7793 12.2876 27.5598 12.3883 27.308C12.4963 27.049 12.5502 26.7755 12.5502 26.4877Z" fill="white"/>
<path d="M17.9855 23.8398H17.4855V24.3398V26.002V26.502H17.9855H20.1298V27.2937H17.9855H17.4855V27.7937V29.9922H16.4022V22.9833H21.0042V23.8398H17.9855Z" fill="white" stroke="white"/>
<path d="M0.269165 30.2547L0.269165 22.7207C0.269165 22.6416 0.290752 22.584 0.333926 22.548C0.377101 22.5049 0.431069 22.4833 0.495831 22.4833H3.96059C4.32758 22.4833 4.66218 22.5588 4.96441 22.7099C5.27381 22.8611 5.53647 23.0589 5.75234 23.3036C5.97539 23.5482 6.14809 23.8289 6.27044 24.1455C6.39278 24.4549 6.45393 24.7751 6.45393 25.1061C6.45393 25.4299 6.39278 25.7465 6.27044 26.056C6.15532 26.3654 5.9898 26.6424 5.77393 26.8871C5.55806 27.1317 5.29901 27.3296 4.99678 27.4807C4.69456 27.6246 4.35996 27.6966 3.99298 27.6966H2.34155V30.2547C2.34155 30.413 2.25881 30.4922 2.09329 30.4922H0.495831C0.34472 30.4922 0.269165 30.413 0.269165 30.2547ZM3.50726 24.1887H2.34155V25.9912H3.50726C3.77349 25.9912 3.97857 25.9012 4.1225 25.7214C4.26643 25.5343 4.33837 25.3256 4.33837 25.0953C4.33837 24.9874 4.31678 24.8795 4.27361 24.7715C4.23761 24.6636 4.18365 24.5664 4.11171 24.4801C4.04694 24.3937 3.96059 24.3254 3.85266 24.275C3.7519 24.2174 3.63679 24.1887 3.50726 24.1887Z" fill="white" stroke="white" stroke-width="0.5"/>
<path d="M7.61755 30.2547V22.7207C7.61755 22.5624 7.69311 22.4833 7.84422 22.4833H10.6505C11.1543 22.4833 11.6436 22.5876 12.1185 22.7963C12.6006 23.0049 13.0287 23.2892 13.4029 23.649C13.7771 24.0087 14.0757 24.4333 14.2988 24.9226C14.5291 25.4119 14.6442 25.9336 14.6442 26.4877C14.6442 27.013 14.5398 27.5167 14.3312 27.9988C14.1225 28.4809 13.8383 28.9091 13.4785 29.2833C13.1187 29.6503 12.6941 29.9452 12.2049 30.1684C11.7227 30.3842 11.2046 30.4922 10.6505 30.4922H7.84422C7.69311 30.4922 7.61755 30.413 7.61755 30.2547ZM12.5502 26.4877C12.5502 26.1999 12.4963 25.93 12.3883 25.6782C12.2876 25.4191 12.1437 25.196 11.9566 25.009C11.7695 24.8219 11.5464 24.6744 11.2873 24.5665C11.0355 24.4513 10.7585 24.3938 10.4563 24.3938H9.70073V28.5817H10.4563C10.7585 28.5817 11.0355 28.5277 11.2873 28.4198C11.5464 28.3046 11.7695 28.1535 11.9566 27.9664C12.1437 27.7793 12.2876 27.5598 12.3883 27.308C12.4963 27.049 12.5502 26.7755 12.5502 26.4877Z" stroke="white" stroke-width="0.5"/>
<path d="M15.9022 30.2547V22.7207C15.9022 22.5624 15.9778 22.4833 16.1289 22.4833H21.2775C21.4286 22.4833 21.5042 22.5624 21.5042 22.7207V24.1023C21.5042 24.2606 21.4286 24.3398 21.2775 24.3398H17.9855V26.002H20.3924C20.5507 26.002 20.6298 26.0847 20.6298 26.2503V27.5563C20.6298 27.7146 20.5507 27.7937 20.3924 27.7937H17.9855V30.2547C17.9855 30.413 17.9063 30.4922 17.7479 30.4922H16.1289C15.9778 30.4922 15.9022 30.413 15.9022 30.2547Z" fill="white" stroke="white" stroke-width="0.5"/>
</svg>
