<svg width="24" height="30" viewBox="0 0 24 30" fill="none" xmlns="http://www.w3.org/2000/svg">
<path d="M19.5 10.5V7.5C19.5 5.51088 18.7098 3.60322 17.3033 2.1967C15.8968 0.790176 13.9891 0 12 0C10.0109 0 8.10322 0.790176 6.6967 2.1967C5.29018 3.60322 4.5 5.51088 4.5 7.5V10.5C3.30653 10.5 2.16193 10.9741 1.31802 11.818C0.474106 12.6619 0 13.8065 0 15V25.5C0 26.6935 0.474106 27.8381 1.31802 28.682C2.16193 29.5259 3.30653 30 4.5 30H19.5C20.6935 30 21.8381 29.5259 22.682 28.682C23.5259 27.8381 24 26.6935 24 25.5V15C24 13.8065 23.5259 12.6619 22.682 11.818C21.8381 10.9741 20.6935 10.5 19.5 10.5ZM7.5 7.5C7.5 6.30653 7.97411 5.16193 8.81802 4.31802C9.66193 3.47411 10.8065 3 12 3C13.1935 3 14.3381 3.47411 15.182 4.31802C16.0259 5.16193 16.5 6.30653 16.5 7.5V10.5H7.5V7.5ZM21 25.5C21 25.8978 20.842 26.2794 20.5607 26.5607C20.2794 26.842 19.8978 27 19.5 27H4.5C4.10218 27 3.72064 26.842 3.43934 26.5607C3.15804 26.2794 3 25.8978 3 25.5V15C3 14.6022 3.15804 14.2206 3.43934 13.9393C3.72064 13.658 4.10218 13.5 4.5 13.5H19.5C19.8978 13.5 20.2794 13.658 20.5607 13.9393C20.842 14.2206 21 14.6022 21 15V25.5Z" fill="white"/>
</svg>
