<svg width="30" height="30" viewBox="0 0 30 30" fill="none" xmlns="http://www.w3.org/2000/svg">
<path d="M16.869 12.4599L16.9968 13.7379C17.7636 13.7379 18.4665 13.9934 19.0415 14.4407C19.1693 14.5685 19.2971 14.6324 19.4249 14.7602C19.7444 15.0797 20.0639 15.527 20.1917 15.9743L21.4058 15.527C21.1502 14.9519 20.8307 14.3768 20.3195 13.9295C20.1278 13.7379 19.9361 13.6101 19.8083 13.4823C18.9776 12.9072 18.0831 12.5238 17.1246 12.5238C16.9968 12.4599 16.9329 12.4599 16.869 12.4599Z" fill="white"/>
<path d="M26.4537 23.5783L27.0288 23.0032L24.7284 20.7029L23.6422 21.7891V20.3834C24.4089 18.9776 24.6006 17.3163 24.345 15.7188C24.2173 15.016 23.9617 14.3131 23.6422 13.738V8.4345L23.2588 8.05112L17.5719 2.36422L15.2077 0H2.9393C1.27796 0 0 1.34185 0 2.9393V27.0287C0 28.6901 1.34185 29.968 2.9393 29.968H20.7029C22.3003 29.968 23.6422 28.6262 23.6422 27.0287V26.3898L23.7061 26.3259L26.8371 29.4569C27.1565 29.7764 27.6038 29.968 27.9872 29.968C28.4345 29.968 28.8179 29.7764 29.1374 29.4569L29.5208 29.0735C30.1597 28.4345 30.1597 27.4121 29.5208 26.7732L26.4537 23.5783ZM17.3802 11.0543C17.6997 11.0543 17.9553 11.1182 18.2748 11.1821C18.722 11.246 19.1054 11.3738 19.5527 11.5655C20 11.7572 20.4473 12.0128 20.7668 12.2684C20.9585 12.3962 21.1502 12.5879 21.4058 12.8434C21.6613 13.099 21.9169 13.4185 22.1086 13.738C22.2364 13.8658 22.3003 14.0575 22.4281 14.2492C22.7476 14.7604 22.9393 15.3994 23.0671 16.0383C23.3227 17.3802 23.0671 18.7859 22.4281 20C22.1725 20.5112 21.7891 20.9585 21.4058 21.4057C20.8307 21.9808 20.1917 22.3642 19.5527 22.6837C18.2748 23.2588 16.869 23.3227 15.5272 22.9393C14.5687 22.6837 13.6741 22.1086 12.9073 21.4057C12.7796 21.278 12.6518 21.0863 12.524 20.9585C12.3323 20.7668 12.2045 20.5751 12.0767 20.3195C11.8211 19.8722 11.5655 19.4249 11.4377 18.9137C10.7987 16.8051 11.3099 14.4409 12.9073 12.8434C12.9712 12.7795 12.9712 12.7796 13.0351 12.7157C13.1629 12.5879 13.2268 12.524 13.3546 12.4601C14.377 11.5655 15.655 11.0543 16.9968 11.0543C17.0607 11.0543 17.1246 11.0543 17.1885 11.0543C17.2524 11.0543 17.3163 10.9904 17.3802 11.0543ZM15.5272 2.04473L16.869 3.38658L21.4696 7.98722H17.1885C16.2939 7.98722 15.5272 7.22045 15.5272 6.32588V2.04473ZM25.1757 23.0032L23.131 25.1118L22.6837 24.6006L24.7284 22.5559L25.1757 23.0032ZM20.7029 28.6262H2.9393C1.98083 28.6262 1.27796 27.8594 1.27796 26.9649V2.8115C1.27796 1.85303 2.04473 1.15016 2.9393 1.15016H14.2492V6.32588C14.2492 7.98722 15.5911 9.26517 17.1885 9.26517H22.3642V11.885C22.3642 11.885 22.3642 11.8211 22.3003 11.8211C22.0447 11.5655 21.7891 11.3099 21.5335 11.1182C21.0863 10.7987 20.5751 10.4792 20.0639 10.2236C19.5527 10.0319 19.0415 9.84025 18.5304 9.77636C18.147 9.77636 17.7636 9.77636 17.508 9.77636C17.4441 9.77636 17.3163 9.71246 17.2524 9.77636C15.3355 9.77636 13.4824 10.4792 12.1406 11.8211L12.0767 11.885C11.9489 12.0128 11.885 12.0767 11.8211 12.2045H3.96166V13.4824H10.7987C10.2875 14.377 10.0319 15.3355 9.90415 16.2939H3.96166V17.5719H9.90415C9.96805 18.0831 10.0319 18.5942 10.1597 19.0415C10.2875 19.4888 10.4792 19.9361 10.6709 20.3834H3.96166V21.6613H11.5016C11.6294 21.853 11.8211 21.9808 11.9489 22.1725C12.8435 23.0671 13.9297 23.7061 15.1438 24.0256C15.4633 24.0895 15.7189 24.1533 16.0383 24.2172C16.1022 24.2172 16.1022 24.2172 16.1661 24.2172C16.4856 24.2811 16.7412 24.2811 17.0607 24.2811C17.0607 24.2811 17.0607 24.2811 17.1246 24.2811C17.1885 24.2811 17.1885 24.2811 17.2524 24.2811C17.4441 24.2811 17.6358 24.2811 17.7636 24.2811C17.8275 24.2811 17.8914 24.2811 17.9553 24.2811C18.147 24.2811 18.2748 24.2172 18.4665 24.2172C18.5304 24.2172 18.5942 24.2172 18.6581 24.1534C18.8498 24.0895 19.0415 24.0895 19.1693 24.0256C19.2332 24.0256 19.2332 24.0256 19.2971 23.9617C19.5527 23.8978 19.7444 23.8339 19.9361 23.7061C20.5751 23.4505 21.2141 23.0671 21.7252 22.5559L22.1725 23.0032L20.7029 24.4728L22.2364 26.0064V26.8371C22.3642 27.8594 21.6613 28.6262 20.7029 28.6262ZM28.6262 28.115L28.2428 28.4984C28.115 28.6262 27.8594 28.6262 27.7316 28.4984L24.6006 25.4313L25.4952 24.5367L28.6262 27.6677C28.8179 27.7316 28.8179 27.9872 28.6262 28.115Z" fill="white"/>
<path d="M11.8211 3.96155H3.9617V5.2395H11.8211V3.96155Z" fill="white"/>
<path d="M11.8211 8.05109H3.9617V9.32904H11.8211V8.05109Z" fill="white"/>
<path d="M19.6167 24.537H3.9617V25.8149H19.6167V24.537Z" fill="white"/>
</svg>
