<svg width="63" height="71" viewBox="0 0 63 71" fill="none" xmlns="http://www.w3.org/2000/svg">
<g filter="url(#filter0_d_8_126)">
<path d="M25.583 31.9612H27.5303C28.0468 31.9612 28.5421 31.756 28.9072 31.3908C29.2724 31.0256 29.4776 30.5303 29.4776 30.0139C29.4776 29.4974 29.2724 29.0021 28.9072 28.6369C28.5421 28.2717 28.0468 28.0665 27.5303 28.0665H25.583C25.0665 28.0665 24.5712 28.2717 24.206 28.6369C23.8408 29.0021 23.6357 29.4974 23.6357 30.0139C23.6357 30.5303 23.8408 31.0256 24.206 31.3908C24.5712 31.756 25.0665 31.9612 25.583 31.9612ZM25.583 35.8558C25.0665 35.8558 24.5712 36.061 24.206 36.4261C23.8408 36.7913 23.6357 37.2866 23.6357 37.8031C23.6357 38.3196 23.8408 38.8149 24.206 39.1801C24.5712 39.5452 25.0665 39.7504 25.583 39.7504H37.2668C37.7833 39.7504 38.2786 39.5452 38.6438 39.1801C39.009 38.8149 39.2142 38.3196 39.2142 37.8031C39.2142 37.2866 39.009 36.7913 38.6438 36.4261C38.2786 36.061 37.7833 35.8558 37.2668 35.8558H25.583ZM47.0034 29.897C46.9831 29.7181 46.9439 29.5419 46.8866 29.3712V29.196C46.7929 28.9958 46.668 28.8117 46.5166 28.6507L34.8327 16.9669C34.6717 16.8154 34.4877 16.6905 34.2875 16.5969C34.2293 16.5886 34.1703 16.5886 34.1122 16.5969C33.9144 16.4834 33.6959 16.4106 33.4696 16.3827H21.6884C20.139 16.3827 18.6531 16.9982 17.5575 18.0938C16.4619 19.1893 15.8464 20.6752 15.8464 22.2246V49.487C15.8464 51.0363 16.4619 52.5223 17.5575 53.6178C18.6531 54.7134 20.139 55.3289 21.6884 55.3289H41.1615C42.7108 55.3289 44.1968 54.7134 45.2923 53.6178C46.3879 52.5223 47.0034 51.0363 47.0034 49.487V30.0139C47.0034 30.0139 47.0034 30.0139 47.0034 29.897ZM35.3195 23.023L40.3631 28.0665H37.2668C36.7504 28.0665 36.2551 27.8614 35.8899 27.4962C35.5247 27.131 35.3195 26.6357 35.3195 26.1192V23.023ZM43.1088 49.487C43.1088 50.0034 42.9036 50.4987 42.5384 50.8639C42.1732 51.2291 41.6779 51.4343 41.1615 51.4343H21.6884C21.1719 51.4343 20.6766 51.2291 20.3114 50.8639C19.9462 50.4987 19.7411 50.0034 19.7411 49.487V22.2246C19.7411 21.7082 19.9462 21.2129 20.3114 20.8477C20.6766 20.4825 21.1719 20.2773 21.6884 20.2773H31.4249V26.1192C31.4249 27.6686 32.0404 29.1545 33.136 30.2501C34.2315 31.3457 35.7175 31.9612 37.2668 31.9612H43.1088V49.487ZM37.2668 43.645H25.583C25.0665 43.645 24.5712 43.8502 24.206 44.2154C23.8408 44.5806 23.6357 45.0759 23.6357 45.5923C23.6357 46.1088 23.8408 46.6041 24.206 46.9693C24.5712 47.3345 25.0665 47.5396 25.583 47.5396H37.2668C37.7833 47.5396 38.2786 47.3345 38.6438 46.9693C39.009 46.6041 39.2142 46.1088 39.2142 45.5923C39.2142 45.0759 39.009 44.5806 38.6438 44.2154C38.2786 43.8502 37.7833 43.645 37.2668 43.645Z" fill="white"/>
</g>
<defs>
<filter id="filter0_d_8_126" x="0.446436" y="0.982691" width="61.957" height="69.7462" filterUnits="userSpaceOnUse" color-interpolation-filters="sRGB">
<feFlood flood-opacity="0" result="BackgroundImageFix"/>
<feColorMatrix in="SourceAlpha" type="matrix" values="0 0 0 0 0 0 0 0 0 0 0 0 0 0 0 0 0 0 127 0" result="hardAlpha"/>
<feOffset/>
<feGaussianBlur stdDeviation="7.7"/>
<feComposite in2="hardAlpha" operator="out"/>
<feColorMatrix type="matrix" values="0 0 0 0 0.85098 0 0 0 0 0.85098 0 0 0 0 0.85098 0 0 0 1 0"/>
<feBlend mode="normal" in2="BackgroundImageFix" result="effect1_dropShadow_8_126"/>
<feBlend mode="normal" in="SourceGraphic" in2="effect1_dropShadow_8_126" result="shape"/>
</filter>
</defs>
</svg>
