<svg width="62" height="46" viewBox="0 0 62 46" fill="none" xmlns="http://www.w3.org/2000/svg">
<g filter="url(#filter0_d_8_128)">
<path d="M17.9274 30.0682C17.4207 30.0682 17.0007 29.9148 16.6674 29.6082C16.3474 29.2882 16.1874 28.8948 16.1874 28.4282C16.1874 27.9615 16.3474 27.5748 16.6674 27.2682C17.0007 26.9482 17.4207 26.7882 17.9274 26.7882C18.4207 26.7882 18.8274 26.9482 19.1474 27.2682C19.4674 27.5748 19.6274 27.9615 19.6274 28.4282C19.6274 28.8948 19.4674 29.2882 19.1474 29.6082C18.8274 29.9148 18.4207 30.0682 17.9274 30.0682ZM25.1427 21.1482V26.5082C25.1427 26.8815 25.2294 27.1548 25.4027 27.3282C25.5894 27.4882 25.896 27.5682 26.3227 27.5682H27.6227V29.9282H25.8627C23.5027 29.9282 22.3227 28.7815 22.3227 26.4882V21.1482H21.0027V18.8482H22.3227V16.1082H25.1427V18.8482H27.6227V21.1482H25.1427ZM35.7566 29.9282L33.4766 26.4882L31.4566 29.9282H28.4566L32.0766 24.3682L28.4166 18.8482H31.5766L33.8366 22.2682L35.8766 18.8482H38.8766L35.2366 24.3682L38.9166 29.9282H35.7566ZM43.6974 21.1482V26.5082C43.6974 26.8815 43.784 27.1548 43.9574 27.3282C44.144 27.4882 44.4507 27.5682 44.8774 27.5682H46.1774V29.9282H44.4174C42.0574 29.9282 40.8774 28.7815 40.8774 26.4882V21.1482H39.5574V18.8482H40.8774V16.1082H43.6974V18.8482H46.1774V21.1482H43.6974Z" fill="white"/>
</g>
<defs>
<filter id="filter0_d_8_128" x="0.787378" y="0.708155" width="60.79" height="44.76" filterUnits="userSpaceOnUse" color-interpolation-filters="sRGB">
<feFlood flood-opacity="0" result="BackgroundImageFix"/>
<feColorMatrix in="SourceAlpha" type="matrix" values="0 0 0 0 0 0 0 0 0 0 0 0 0 0 0 0 0 0 127 0" result="hardAlpha"/>
<feOffset/>
<feGaussianBlur stdDeviation="7.7"/>
<feComposite in2="hardAlpha" operator="out"/>
<feColorMatrix type="matrix" values="0 0 0 0 0.85098 0 0 0 0 0.85098 0 0 0 0 0.85098 0 0 0 1 0"/>
<feBlend mode="normal" in2="BackgroundImageFix" result="effect1_dropShadow_8_128"/>
<feBlend mode="normal" in="SourceGraphic" in2="effect1_dropShadow_8_128" result="shape"/>
</filter>
</defs>
</svg>
