<svg width="50" height="50" viewBox="0 0 50 50" fill="none" xmlns="http://www.w3.org/2000/svg">
<path d="M16.775 14.2625L22.5 8.51253V32.4875C22.5 33.1506 22.7634 33.7865 23.2322 34.2553C23.7011 34.7241 24.337 34.9875 25 34.9875C25.663 34.9875 26.2989 34.7241 26.7678 34.2553C27.2366 33.7865 27.5 33.1506 27.5 32.4875V8.51253L33.225 14.2625C33.4574 14.4969 33.7339 14.6828 34.0386 14.8098C34.3432 14.9367 34.67 15.002 35 15.002C35.33 15.002 35.6568 14.9367 35.9614 14.8098C36.2661 14.6828 36.5426 14.4969 36.775 14.2625C37.0093 14.0301 37.1953 13.7536 37.3222 13.449C37.4492 13.1443 37.5145 12.8176 37.5145 12.4875C37.5145 12.1575 37.4492 11.8307 37.3222 11.5261C37.1953 11.2214 37.0093 10.9449 36.775 10.7125L26.775 0.712534C26.5372 0.484932 26.2569 0.30652 25.95 0.187534C25.3413 -0.0625113 24.6587 -0.0625113 24.05 0.187534C23.7431 0.30652 23.4628 0.484932 23.225 0.712534L13.225 10.7125C12.9919 10.9456 12.807 11.2224 12.6809 11.5269C12.5547 11.8315 12.4898 12.1579 12.4898 12.4875C12.4898 12.8172 12.5547 13.1436 12.6809 13.4482C12.807 13.7527 12.9919 14.0294 13.225 14.2625C13.4581 14.4956 13.7348 14.6805 14.0394 14.8067C14.3439 14.9328 14.6704 14.9978 15 14.9978C15.3296 14.9978 15.6561 14.9328 15.9606 14.8067C16.2652 14.6805 16.5419 14.4956 16.775 14.2625ZM47.5 29.9875C46.837 29.9875 46.2011 30.2509 45.7322 30.7198C45.2634 31.1886 45 31.8245 45 32.4875V42.4875C45 43.1506 44.7366 43.7865 44.2678 44.2553C43.7989 44.7241 43.163 44.9875 42.5 44.9875H7.5C6.83696 44.9875 6.20107 44.7241 5.73223 44.2553C5.26339 43.7865 5 43.1506 5 42.4875V32.4875C5 31.8245 4.73661 31.1886 4.26777 30.7198C3.79893 30.2509 3.16304 29.9875 2.5 29.9875C1.83696 29.9875 1.20107 30.2509 0.732233 30.7198C0.263392 31.1886 0 31.8245 0 32.4875V42.4875C0 44.4767 0.790177 46.3843 2.1967 47.7908C3.60322 49.1974 5.51088 49.9875 7.5 49.9875H42.5C44.4891 49.9875 46.3968 49.1974 47.8033 47.7908C49.2098 46.3843 50 44.4767 50 42.4875V32.4875C50 31.8245 49.7366 31.1886 49.2678 30.7198C48.7989 30.2509 48.163 29.9875 47.5 29.9875Z" fill="#6C6C6C"/>
</svg>
